<svg xmlns="http://www.w3.org/2000/svg" viewBox="0 0 64 64" role="img" aria-labelledby="title desc">
  <title id="title">ShiftQuest icon</title>
  <desc id="desc">A cyan dialogue terminal crossed by an amber process line.</desc>
  <defs>
    <linearGradient id="panel" x1="8" y1="6" x2="58" y2="60" gradientUnits="userSpaceOnUse">
      <stop stop-color="#112A38"/>
      <stop offset="1" stop-color="#061017"/>
    </linearGradient>
    <linearGradient id="signal" x1="15" y1="20" x2="50" y2="39" gradientUnits="userSpaceOnUse">
      <stop stop-color="#FFD166"/>
      <stop offset="1" stop-color="#FF9F1C"/>
    </linearGradient>
  </defs>
  <rect x="2" y="2" width="60" height="60" rx="14" fill="url(#panel)" stroke="#1FE1D0" stroke-width="2"/>
  <path d="M13 13h38a4 4 0 0 1 4 4v25a4 4 0 0 1-4 4H31l-9 8v-8h-9a4 4 0 0 1-4-4V17a4 4 0 0 1 4-4Z" fill="#0A1D27" stroke="#72F7E8" stroke-width="2.5" stroke-linejoin="round"/>
  <path d="M15 31h9v-8h9v16h9v-8h8" fill="none" stroke="url(#signal)" stroke-width="4" stroke-linecap="square" stroke-linejoin="round"/>
  <circle cx="24" cy="23" r="2.6" fill="#FFF3C4"/>
  <circle cx="42" cy="39" r="2.6" fill="#FFF3C4"/>
</svg>
